# xmcd
#
# Track frame offsets: 
#        150
#        11754
#        23170
#        35105
#        47018
#        57971
#        70487
#        82563
#        95075
#        108169
#        119174
#        130963
#        142835
#        156646
#        167600
#        179633
#        191763
#        203723
#        216861
#        229290
#
# Disc length: 3200 seconds
#
# Revision: 0
# Processed by: cddbd v1.5.2PL0 Copyright (c) Steve Scherf et al.
# Submitted via: ExactAudioCopy v1.0b3
#
DISCID=270c7e14
DTITLE=Gene Autry - We've Come A Long Way Together
DYEAR=2002
DGENRE=Western
TTITLE0=We've Come A Long Way Together  (1939)
TTITLE1=Blue Montana Skies  (1939)
TTITLE2=There Ain't No Use In Crying Now  (1940)
TTITLE3=End Of My Round Up Days  (1937)
TTITLE4=When I'm Gone You'll Soon Forget  (1940)
TTITLE5=That Little Kid Sister Of Mine  (1940)
TTITLE6=You Waited Too Long  (1940)
TTITLE7=Little Pardner  (1939)
TTITLE8=I'm Gonna Round Up My Blues  (1939)
TTITLE9=I'm Coming Home Darling  (1941)
TTITLE10=There's Only One Love In Lifetime  (1940)
TTITLE11=Sweethearts Or Strangers  (1941)
TTITLE12=Angel Song  (1947)
TTITLE13=I Guess I've Been Asleep  (1944)
TTITLE14=I'll Be True While You're Gone  (1941)
TTITLE15=Bible On The Table  (1948)
TTITLE16=Don't Send Me Your Love By Mail  (1950)
TTITLE17=I Don't Belong In Your World  (1939)
TTITLE18=Sail Along Silv'ry Moon  (1937)
TTITLE19=You Are The Light Of My Life  (1941)
EXTD=
EXTT0=
EXTT1=
EXTT2=
EXTT3=
EXTT4=
EXTT5=
EXTT6=
EXTT7=
EXTT8=
EXTT9=
EXTT10=
EXTT11=
EXTT12=
EXTT13=
EXTT14=
EXTT15=
EXTT16=
EXTT17=
EXTT18=
EXTT19=
PLAYORDER=
